<svg width="478" height="123" viewBox="0 0 478 123" fill="none" xmlns="http://www.w3.org/2000/svg">
<path d="M97.9313 9.79315V19.5863H78.6715H59.4117V33.0355V46.4195L57.7142 45.1137C55.3638 43.2856 53.9275 43.4162 52.2953 45.4401C49.6838 48.7698 50.5978 54.5151 54.5804 59.8687L56.1473 61.8926L46.55 71.1634C41.0659 76.4517 36.561 80.2384 35.9734 80.1731C33.4925 79.7161 34.6024 77.3005 39.8254 72.1428C42.6981 69.2701 45.0484 66.7239 45.0484 66.4627C45.0484 65.0264 42.9592 66.3975 38.7155 70.6411C34.0801 75.2766 33.9495 75.2766 32.6438 74.1014C31.9256 73.4485 31.338 72.4692 31.338 71.9469C31.338 71.4246 33.5578 68.7478 36.2999 65.9404C39.499 62.6108 40.9353 60.7174 40.4783 60.391C40.0213 60.0646 37.9974 61.6315 35.3206 64.243C31.9256 67.6379 30.8157 68.4214 30.1628 67.7685C28.8571 66.4627 29.1835 65.8099 33.9495 60.7174C36.4957 58.0406 38.5197 55.625 38.5197 55.3639C38.5197 54.1887 37.2792 55.1027 33.2967 59.0852C30.0976 62.2843 28.9224 63.1331 28.2695 62.5455C27.8125 62.1538 27.4208 61.4356 27.4208 60.848C27.4208 60.3257 29.9017 56.082 32.9702 51.4466L38.5197 43.0245V31.338V19.5863H19.2598H0V9.79315V4.4225e-06H48.9657H97.9313V9.79315ZM60.0645 51.0549C62.2843 53.6664 64.5694 56.6696 65.157 57.7795C67.0503 61.305 66.4627 65.4834 62.8066 75.2113L59.4117 84.0904V102.436V120.782H48.9657H38.5197V101.587V82.3929L47.4641 73.7097C52.3606 68.8784 56.8655 64.4388 57.5836 63.786C59.1505 62.2843 59.0852 61.6315 56.8655 58.8241C54.0581 55.2333 53.5358 53.9275 53.5358 50.402C53.5358 44.7873 54.8415 44.9179 60.0645 51.0549Z" fill="#080C1C"/>
<path d="M60.0644 50.9292C62.2842 53.5407 64.5693 56.5439 65.1569 57.6538C67.0502 61.1793 66.4626 65.3577 62.8065 75.0855L59.4115 83.9646V102.31V120.656H48.9655H38.5195V101.462V82.2672L47.4639 73.5839C52.3605 68.7526 56.8653 64.3131 57.5835 63.6602C59.1504 62.1586 59.0851 61.5057 56.8653 58.6984C54.058 55.1076 53.5357 53.8018 53.5357 50.2763C53.5357 44.6615 54.8414 44.7921 60.0644 50.9292Z" fill="#0044FF"/>
<path d="M79.9854 120.619V57.2789H96.7L98.4594 68.8409C100.135 66.1598 102.104 63.8558 104.366 61.9288C106.628 60.0018 109.226 58.4937 112.158 57.4045C115.174 56.3154 118.4 55.7708 121.835 55.7708V75.7529H115.551C113.038 75.7529 110.734 76.0462 108.639 76.6327C106.628 77.1354 104.869 78.0151 103.361 79.2718C101.936 80.5286 100.805 82.2461 99.9675 84.4245C99.2135 86.519 98.8365 89.1582 98.8365 92.3419V120.619H79.9854Z" fill="#080C1C"/>
<path d="M150.623 122.127C145.345 122.127 140.862 121.038 137.176 118.859C133.573 116.681 130.808 113.497 128.881 109.308C127.038 105.035 126.117 99.8405 126.117 93.7243V57.2789H144.968V91.8392C144.968 96.5311 145.931 100.134 147.858 102.647C149.785 105.077 152.885 106.292 157.158 106.292C159.755 106.292 162.059 105.705 164.07 104.532C166.165 103.359 167.757 101.642 168.846 99.3797C170.019 97.1175 170.605 94.3527 170.605 91.0852V57.2789H189.456V120.619H172.993L171.485 110.565C169.642 114 166.961 116.806 163.442 118.985C159.923 121.079 155.65 122.127 150.623 122.127Z" fill="#080C1C"/>
<path d="M226.16 122.127C220.211 122.127 215.059 121.205 210.702 119.362C206.429 117.435 203.036 114.838 200.523 111.57C198.093 108.303 196.71 104.616 196.375 100.511H215.101C215.436 101.935 216.022 103.234 216.86 104.407C217.782 105.496 218.997 106.376 220.505 107.046C222.097 107.632 223.856 107.926 225.783 107.926C227.878 107.926 229.553 107.674 230.81 107.171C232.151 106.585 233.156 105.831 233.826 104.909C234.496 103.988 234.832 103.024 234.832 102.019C234.832 100.427 234.329 99.2121 233.323 98.3743C232.402 97.5365 231.019 96.8662 229.176 96.3635C227.333 95.777 225.113 95.2324 222.515 94.7297C219.499 94.0595 216.483 93.3054 213.467 92.4676C210.535 91.546 207.895 90.4149 205.549 89.0744C203.287 87.7339 201.444 86.0163 200.02 83.9218C198.679 81.7434 198.009 79.1043 198.009 76.0043C198.009 72.2341 199.056 68.8409 201.151 65.8247C203.245 62.7247 206.262 60.295 210.199 58.5356C214.137 56.6924 218.913 55.7708 224.526 55.7708C232.486 55.7708 238.727 57.5302 243.252 61.0491C247.776 64.568 250.457 69.3017 251.295 75.2503H233.7C233.198 73.5746 232.151 72.3179 230.559 71.48C228.967 70.5584 226.956 70.0976 224.526 70.0976C221.761 70.0976 219.667 70.5584 218.243 71.48C216.818 72.4016 216.106 73.6165 216.106 75.1246C216.106 76.13 216.567 77.0516 217.489 77.8894C218.494 78.6435 219.918 79.3137 221.761 79.9002C223.605 80.4867 225.867 81.0732 228.548 81.6596C233.659 82.7488 238.057 83.9218 241.744 85.1785C245.514 86.4353 248.446 88.2785 250.541 90.7082C252.635 93.0541 253.641 96.4892 253.557 101.013C253.641 105.119 252.552 108.763 250.289 111.947C248.111 115.131 244.969 117.644 240.864 119.488C236.759 121.247 231.857 122.127 226.16 122.127Z" fill="#080C1C"/>
<path d="M289.319 120.619C284.711 120.619 280.648 119.906 277.129 118.482C273.61 116.974 270.887 114.544 268.96 111.193C267.033 107.842 266.069 103.276 266.069 97.4946V72.9881H255.261V57.2789H266.069L268.08 39.4331H284.921V57.2789H301.133V72.9881H284.921V97.7459C284.921 100.259 285.465 102.061 286.554 103.15C287.727 104.155 289.696 104.658 292.461 104.658H301.133V120.619H289.319Z" fill="#080C1C"/>
<path d="M306.794 120.619V32.6467H329.415L355.053 85.5555L380.439 32.6467H402.934V120.619H384.083V64.4423L362.467 108.303H347.386L325.645 64.4423V120.619H306.794Z" fill="#0044FF"/>
<path d="M446.079 122.127C439.544 122.127 433.805 120.786 428.862 118.105C423.918 115.34 420.022 111.528 417.174 106.669C414.409 101.726 413.027 96.0703 413.027 89.7028C413.027 83.1677 414.409 77.3448 417.174 72.2341C419.939 67.1233 423.793 63.1018 428.736 60.1694C433.679 57.237 439.418 55.7708 445.953 55.7708C452.321 55.7708 457.892 57.1532 462.668 59.918C467.444 62.6828 471.172 66.4531 473.853 71.2287C476.618 75.9205 478 81.3664 478 87.5663C478 88.4041 477.958 89.3676 477.874 90.4568C477.874 91.4622 477.791 92.5095 477.623 93.5987H426.474V82.665H458.772C458.604 79.1462 457.306 76.3394 454.876 74.2449C452.53 72.0665 449.598 70.9773 446.079 70.9773C443.398 70.9773 440.968 71.6057 438.79 72.8624C436.611 74.1192 434.852 76.0043 433.512 78.5178C432.255 81.0313 431.626 84.215 431.626 88.069V91.8392C431.626 94.7716 432.171 97.3689 433.26 99.631C434.433 101.893 436.067 103.653 438.161 104.909C440.34 106.166 442.895 106.794 445.828 106.794C448.592 106.794 450.855 106.25 452.614 105.161C454.457 103.988 455.881 102.522 456.887 100.762H476.115C474.942 104.784 472.931 108.428 470.083 111.696C467.234 114.879 463.757 117.435 459.652 119.362C455.546 121.205 451.022 122.127 446.079 122.127Z" fill="#0044FF"/>
</svg>
